<svg width="55" height="64" viewBox="0 0 55 64" fill="none" xmlns="http://www.w3.org/2000/svg">
<rect x="11.5" y="0.5" width="43" height="43" fill="white" stroke="#18BCC7"/>
<path d="M17 37.9997H31.5454V23.4541H17V37.9997ZM19.9089 26.3634H28.6362V35.0682H19.9089V26.3634Z" fill="#505759"/>
<path d="M25.7272 29.2725H22.8181V32.1819H25.7272V29.2725Z" fill="#505759"/>
<path d="M43.1818 35.0911H40.2721V38.0002H43.1818V35.0911Z" fill="#505759"/>
<path d="M48.9999 35.0911H46.0903V38.0002H48.9999V35.0911Z" fill="#505759"/>
<path d="M46.0906 26.3634H43.1818V23.4541H34.4542V37.9997H37.3635V29.2723H40.2721V32.1817H48.9997V23.4541H46.0906V26.3634Z" fill="#505759"/>
<path d="M17 20.5457H31.5454V6H17V20.5457ZM19.9089 8.90886H28.6362V17.6362H19.9089V8.90886Z" fill="#505759"/>
<path d="M25.7272 11.8181H22.8181V14.7274H25.7272V11.8181Z" fill="#505759"/>
<path d="M34.4542 6V20.5457H49V6H34.4542ZM46.0906 17.6362H37.3635V8.90886H46.0906V17.6362Z" fill="#505759"/>
<path d="M43.1818 11.8181H40.2721V14.7274H43.1818V11.8181Z" fill="#505759"/>
<path d="M8.49695 52.835V60H7.64695V54.735C7.64695 54.665 7.64862 54.59 7.65195 54.51C7.65862 54.43 7.66529 54.3483 7.67195 54.265L5.21195 58.745C5.13529 58.895 5.01862 58.97 4.86195 58.97H4.72195C4.56529 58.97 4.44862 58.895 4.37195 58.745L1.86195 54.245C1.88195 54.4217 1.89195 54.585 1.89195 54.735V60H1.04195V52.835H1.75695C1.84362 52.835 1.91029 52.8433 1.95695 52.86C2.00362 52.8767 2.04862 52.9233 2.09195 53L4.56695 57.41C4.60695 57.49 4.64529 57.5733 4.68195 57.66C4.72195 57.7467 4.75862 57.835 4.79195 57.925C4.82529 57.835 4.86029 57.7467 4.89695 57.66C4.93362 57.57 4.97362 57.485 5.01695 57.405L7.44695 53C7.48695 52.9233 7.53029 52.8767 7.57695 52.86C7.62695 52.8433 7.69529 52.835 7.78195 52.835H8.49695ZM12.7176 57.72C12.3076 57.7333 11.9576 57.7667 11.6676 57.82C11.3809 57.87 11.1459 57.9367 10.9626 58.02C10.7826 58.1033 10.6509 58.2017 10.5676 58.315C10.4876 58.4283 10.4476 58.555 10.4476 58.695C10.4476 58.8283 10.4692 58.9433 10.5126 59.04C10.5559 59.1367 10.6142 59.2167 10.6876 59.28C10.7642 59.34 10.8526 59.385 10.9526 59.415C11.0559 59.4417 11.1659 59.455 11.2826 59.455C11.4392 59.455 11.5826 59.44 11.7126 59.41C11.8426 59.3767 11.9642 59.33 12.0776 59.27C12.1942 59.21 12.3042 59.1383 12.4076 59.055C12.5142 58.9717 12.6176 58.8767 12.7176 58.77V57.72ZM9.84258 55.65C10.1226 55.38 10.4242 55.1783 10.7476 55.045C11.0709 54.9117 11.4292 54.845 11.8226 54.845C12.1059 54.845 12.3576 54.8917 12.5776 54.985C12.7976 55.0783 12.9826 55.2083 13.1326 55.375C13.2826 55.5417 13.3959 55.7433 13.4726 55.98C13.5492 56.2167 13.5876 56.4767 13.5876 56.76V60H13.1926C13.1059 60 13.0392 59.9867 12.9926 59.96C12.9459 59.93 12.9092 59.8733 12.8826 59.79L12.7826 59.31C12.6492 59.4333 12.5192 59.5433 12.3926 59.64C12.2659 59.7333 12.1326 59.8133 11.9926 59.88C11.8526 59.9433 11.7026 59.9917 11.5426 60.025C11.3859 60.0617 11.2109 60.08 11.0176 60.08C10.8209 60.08 10.6359 60.0533 10.4626 60C10.2892 59.9433 10.1376 59.86 10.0076 59.75C9.88091 59.64 9.77924 59.5017 9.70258 59.335C9.62924 59.165 9.59258 58.965 9.59258 58.735C9.59258 58.535 9.64758 58.3433 9.75758 58.16C9.86758 57.9733 10.0459 57.8083 10.2926 57.665C10.5392 57.5217 10.8609 57.405 11.2576 57.315C11.6542 57.2217 12.1409 57.1683 12.7176 57.155V56.76C12.7176 56.3667 12.6326 56.07 12.4626 55.87C12.2926 55.6667 12.0442 55.565 11.7176 55.565C11.4976 55.565 11.3126 55.5933 11.1626 55.65C11.0159 55.7033 10.8876 55.765 10.7776 55.835C10.6709 55.9017 10.5776 55.9633 10.4976 56.02C10.4209 56.0733 10.3442 56.1 10.2676 56.1C10.2076 56.1 10.1559 56.085 10.1126 56.055C10.0692 56.0217 10.0326 55.9817 10.0026 55.935L9.84258 55.65ZM12.2626 53.375C12.3826 53.375 12.4742 53.34 12.5376 53.27C12.6042 53.2 12.6392 53.0917 12.6426 52.945H13.1826C13.1826 53.1017 13.1609 53.2467 13.1176 53.38C13.0776 53.51 13.0176 53.6217 12.9376 53.715C12.8609 53.8083 12.7676 53.8817 12.6576 53.935C12.5509 53.985 12.4309 54.01 12.2976 54.01C12.1809 54.01 12.0709 53.9867 11.9676 53.94C11.8676 53.89 11.7726 53.8367 11.6826 53.78C11.5926 53.7233 11.5076 53.6717 11.4276 53.625C11.3476 53.575 11.2692 53.55 11.1926 53.55C10.9526 53.55 10.8292 53.6967 10.8226 53.99H10.2676C10.2676 53.83 10.2892 53.685 10.3326 53.555C10.3759 53.4217 10.4376 53.3083 10.5176 53.215C10.5976 53.1183 10.6926 53.045 10.8026 52.995C10.9126 52.9417 11.0326 52.915 11.1626 52.915C11.2792 52.915 11.3876 52.94 11.4876 52.99C11.5909 53.0367 11.6876 53.0883 11.7776 53.145C11.8676 53.2017 11.9509 53.255 12.0276 53.305C12.1076 53.3517 12.1859 53.375 12.2626 53.375ZM18.2619 56.42C18.2619 56.86 18.3219 57.255 18.4419 57.605C18.5619 57.9517 18.7319 58.2467 18.9519 58.49C19.1752 58.73 19.4435 58.915 19.7569 59.045C20.0702 59.1717 20.4185 59.235 20.8019 59.235C21.1885 59.235 21.5385 59.1717 21.8519 59.045C22.1652 58.915 22.4319 58.73 22.6519 58.49C22.8719 58.2467 23.0419 57.9517 23.1619 57.605C23.2819 57.255 23.3419 56.86 23.3419 56.42C23.3419 55.98 23.2819 55.585 23.1619 55.235C23.0419 54.885 22.8719 54.59 22.6519 54.35C22.4319 54.1067 22.1652 53.92 21.8519 53.79C21.5385 53.66 21.1885 53.595 20.8019 53.595C20.4185 53.595 20.0702 53.66 19.7569 53.79C19.4435 53.92 19.1752 54.1067 18.9519 54.35C18.7319 54.59 18.5619 54.885 18.4419 55.235C18.3219 55.585 18.2619 55.98 18.2619 56.42ZM24.6669 61.48H23.8669C23.7469 61.48 23.6402 61.4633 23.5469 61.43C23.4535 61.3967 23.3685 61.3383 23.2919 61.255L22.0369 59.885C21.6569 60.0117 21.2452 60.075 20.8019 60.075C20.2752 60.075 19.7952 59.9867 19.3619 59.81C18.9285 59.63 18.5569 59.3783 18.2469 59.055C17.9369 58.7317 17.6969 58.3467 17.5269 57.9C17.3569 57.45 17.2719 56.9567 17.2719 56.42C17.2719 55.8833 17.3569 55.3917 17.5269 54.945C17.6969 54.495 17.9369 54.1083 18.2469 53.785C18.5569 53.4583 18.9285 53.205 19.3619 53.025C19.7952 52.845 20.2752 52.755 20.8019 52.755C21.3285 52.755 21.8085 52.845 22.2419 53.025C22.6785 53.205 23.0519 53.4583 23.3619 53.785C23.6719 54.1083 23.9119 54.495 24.0819 54.945C24.2519 55.3917 24.3369 55.8833 24.3369 56.42C24.3369 56.7567 24.3019 57.0767 24.2319 57.38C24.1652 57.6833 24.0669 57.9667 23.9369 58.23C23.8069 58.49 23.6485 58.7267 23.4619 58.94C23.2752 59.1533 23.0652 59.3383 22.8319 59.495L24.6669 61.48ZM27.7047 56.305C27.9847 56.305 28.2314 56.2717 28.4447 56.205C28.6614 56.135 28.8414 56.0383 28.9847 55.915C29.1314 55.7883 29.2414 55.6383 29.3147 55.465C29.388 55.2917 29.4247 55.1 29.4247 54.89C29.4247 54.4633 29.2847 54.1417 29.0047 53.925C28.7247 53.7083 28.3047 53.6 27.7447 53.6H26.6847V56.305H27.7047ZM31.0147 60H30.1547C29.978 60 29.848 59.9317 29.7647 59.795L27.9047 57.235C27.848 57.155 27.7864 57.0983 27.7197 57.065C27.6564 57.0283 27.5564 57.01 27.4197 57.01H26.6847V60H25.7197V52.835H27.7447C28.198 52.835 28.5897 52.8817 28.9197 52.975C29.2497 53.065 29.5214 53.1967 29.7347 53.37C29.9514 53.5433 30.1114 53.7533 30.2147 54C30.318 54.2433 30.3697 54.5167 30.3697 54.82C30.3697 55.0733 30.3297 55.31 30.2497 55.53C30.1697 55.75 30.053 55.9483 29.8997 56.125C29.7497 56.2983 29.5647 56.4467 29.3447 56.57C29.128 56.6933 28.8814 56.7867 28.6047 56.85C28.728 56.92 28.8347 57.0217 28.9247 57.155L31.0147 60ZM37.8628 55.835C37.8361 55.8717 37.8095 55.9 37.7828 55.92C37.7561 55.94 37.7195 55.95 37.6728 55.95C37.6228 55.95 37.5678 55.93 37.5078 55.89C37.4478 55.8467 37.3728 55.8 37.2828 55.75C37.1961 55.7 37.0878 55.655 36.9578 55.615C36.8311 55.5717 36.6745 55.55 36.4878 55.55C36.2378 55.55 36.0178 55.595 35.8278 55.685C35.6378 55.7717 35.4778 55.8983 35.3478 56.065C35.2211 56.2317 35.1245 56.4333 35.0578 56.67C34.9945 56.9067 34.9628 57.1717 34.9628 57.465C34.9628 57.7717 34.9978 58.045 35.0678 58.285C35.1378 58.5217 35.2361 58.7217 35.3628 58.885C35.4928 59.045 35.6478 59.1683 35.8278 59.255C36.0111 59.3383 36.2161 59.38 36.4428 59.38C36.6595 59.38 36.8378 59.355 36.9778 59.305C37.1178 59.2517 37.2328 59.1933 37.3228 59.13C37.4161 59.0667 37.4928 59.01 37.5528 58.96C37.6161 58.9067 37.6778 58.88 37.7378 58.88C37.8111 58.88 37.8678 58.9083 37.9078 58.965L38.1578 59.29C38.0478 59.4267 37.9228 59.5433 37.7828 59.64C37.6428 59.7367 37.4911 59.8183 37.3278 59.885C37.1678 59.9483 36.9995 59.995 36.8228 60.025C36.6461 60.055 36.4661 60.07 36.2828 60.07C35.9661 60.07 35.6711 60.0117 35.3978 59.895C35.1278 59.7783 34.8928 59.61 34.6928 59.39C34.4928 59.1667 34.3361 58.8933 34.2228 58.57C34.1095 58.2467 34.0528 57.8783 34.0528 57.465C34.0528 57.0883 34.1045 56.74 34.2078 56.42C34.3145 56.1 34.4678 55.825 34.6678 55.595C34.8711 55.3617 35.1195 55.18 35.4128 55.05C35.7095 54.92 36.0495 54.855 36.4328 54.855C36.7895 54.855 37.1028 54.9133 37.3728 55.03C37.6461 55.1433 37.8878 55.305 38.0978 55.515L37.8628 55.835ZM41.1603 54.855C41.5303 54.855 41.8636 54.9167 42.1603 55.04C42.457 55.1633 42.7103 55.3383 42.9203 55.565C43.1303 55.7917 43.2903 56.0667 43.4003 56.39C43.5136 56.71 43.5703 57.0683 43.5703 57.465C43.5703 57.865 43.5136 58.225 43.4003 58.545C43.2903 58.865 43.1303 59.1383 42.9203 59.365C42.7103 59.5917 42.457 59.7667 42.1603 59.89C41.8636 60.01 41.5303 60.07 41.1603 60.07C40.787 60.07 40.4503 60.01 40.1503 59.89C39.8536 59.7667 39.6003 59.5917 39.3903 59.365C39.1803 59.1383 39.0186 58.865 38.9053 58.545C38.7953 58.225 38.7403 57.865 38.7403 57.465C38.7403 57.0683 38.7953 56.71 38.9053 56.39C39.0186 56.0667 39.1803 55.7917 39.3903 55.565C39.6003 55.3383 39.8536 55.1633 40.1503 55.04C40.4503 54.9167 40.787 54.855 41.1603 54.855ZM41.1603 59.375C41.6603 59.375 42.0336 59.2083 42.2803 58.875C42.527 58.5383 42.6503 58.07 42.6503 57.47C42.6503 56.8667 42.527 56.3967 42.2803 56.06C42.0336 55.7233 41.6603 55.555 41.1603 55.555C40.907 55.555 40.6853 55.5983 40.4953 55.685C40.3086 55.7717 40.152 55.8967 40.0253 56.06C39.902 56.2233 39.8086 56.425 39.7453 56.665C39.6853 56.9017 39.6553 57.17 39.6553 57.47C39.6553 58.07 39.7786 58.5383 40.0253 58.875C40.2753 59.2083 40.6536 59.375 41.1603 59.375ZM47.9991 56.14C47.8325 55.9167 47.6525 55.7617 47.4591 55.675C47.2658 55.585 47.0491 55.54 46.8091 55.54C46.3391 55.54 45.9775 55.7083 45.7241 56.045C45.4708 56.3817 45.3441 56.8617 45.3441 57.485C45.3441 57.815 45.3725 58.0983 45.4291 58.335C45.4858 58.5683 45.5691 58.7617 45.6791 58.915C45.7891 59.065 45.9241 59.175 46.0841 59.245C46.2441 59.315 46.4258 59.35 46.6291 59.35C46.9225 59.35 47.1775 59.2833 47.3941 59.15C47.6141 59.0167 47.8158 58.8283 47.9991 58.585V56.14ZM48.8891 52.635V60H48.3591C48.2325 60 48.1525 59.9383 48.1191 59.815L48.0391 59.2C47.8225 59.46 47.5758 59.67 47.2991 59.83C47.0225 59.99 46.7025 60.07 46.3391 60.07C46.0491 60.07 45.7858 60.015 45.5491 59.905C45.3125 59.7917 45.1108 59.6267 44.9441 59.41C44.7775 59.1933 44.6491 58.9233 44.5591 58.6C44.4691 58.2767 44.4241 57.905 44.4241 57.485C44.4241 57.1117 44.4741 56.765 44.5741 56.445C44.6741 56.1217 44.8175 55.8417 45.0041 55.605C45.1908 55.3683 45.4191 55.1833 45.6891 55.05C45.9625 54.9133 46.2691 54.845 46.6091 54.845C46.9191 54.845 47.1841 54.8983 47.4041 55.005C47.6275 55.1083 47.8258 55.2533 47.9991 55.44V52.635H48.8891ZM53.6848 56.915C53.6848 56.7083 53.6548 56.52 53.5948 56.35C53.5382 56.1767 53.4532 56.0283 53.3398 55.905C53.2298 55.7783 53.0948 55.6817 52.9348 55.615C52.7748 55.545 52.5932 55.51 52.3898 55.51C51.9632 55.51 51.6248 55.635 51.3748 55.885C51.1282 56.1317 50.9748 56.475 50.9148 56.915H53.6848ZM54.4048 59.29C54.2948 59.4233 54.1632 59.54 54.0098 59.64C53.8565 59.7367 53.6915 59.8167 53.5148 59.88C53.3415 59.9433 53.1615 59.99 52.9748 60.02C52.7882 60.0533 52.6032 60.07 52.4198 60.07C52.0698 60.07 51.7465 60.0117 51.4498 59.895C51.1565 59.775 50.9015 59.6017 50.6848 59.375C50.4715 59.145 50.3048 58.8617 50.1848 58.525C50.0648 58.1883 50.0048 57.8017 50.0048 57.365C50.0048 57.0117 50.0582 56.6817 50.1648 56.375C50.2748 56.0683 50.4315 55.8033 50.6348 55.58C50.8382 55.3533 51.0865 55.1767 51.3798 55.05C51.6732 54.92 52.0032 54.855 52.3698 54.855C52.6732 54.855 52.9532 54.9067 53.2098 55.01C53.4698 55.11 53.6932 55.2567 53.8798 55.45C54.0698 55.64 54.2182 55.8767 54.3248 56.16C54.4315 56.44 54.4848 56.76 54.4848 57.12C54.4848 57.26 54.4698 57.3533 54.4398 57.4C54.4098 57.4467 54.3532 57.47 54.2698 57.47H50.8848C50.8948 57.79 50.9382 58.0683 51.0148 58.305C51.0948 58.5417 51.2048 58.74 51.3448 58.9C51.4848 59.0567 51.6515 59.175 51.8448 59.255C52.0382 59.3317 52.2548 59.37 52.4948 59.37C52.7182 59.37 52.9098 59.345 53.0698 59.295C53.2332 59.2417 53.3732 59.185 53.4898 59.125C53.6065 59.065 53.7032 59.01 53.7798 58.96C53.8598 58.9067 53.9282 58.88 53.9848 58.88C54.0582 58.88 54.1148 58.9083 54.1548 58.965L54.4048 59.29Z" fill="#8C9497"/>
</svg>
