<svg width="48" height="48" viewBox="0 0 48 48" fill="none" xmlns="http://www.w3.org/2000/svg">
<circle opacity="0.1" cx="24" cy="24" r="24" fill="#4695FE"/>
<path fill-rule="evenodd" clip-rule="evenodd" d="M16.872 16.29C17.349 15.8488 18.0683 15.8458 18.5997 16.2198L19.098 16.5705C19.5828 16.9118 20.2184 16.9233 20.7604 16.683C20.8778 16.631 20.9966 16.5817 21.1168 16.5352C21.6698 16.3215 22.1109 15.864 22.2125 15.2799L22.3168 14.6799C22.4281 14.0394 22.9393 13.5329 23.5888 13.5079C23.7251 13.5026 23.8621 13.5 23.9997 13.5C24.1373 13.5 24.2743 13.5026 24.4106 13.5079C25.0601 13.5329 25.5712 14.0394 25.6826 14.6798L25.7869 15.2799C25.8884 15.864 26.3295 16.3215 26.8825 16.5352C27.0028 16.5817 27.1216 16.631 27.2389 16.683C27.781 16.9233 28.4165 16.9118 28.9014 16.5705L29.3997 16.2198C29.9311 15.8458 30.6504 15.8488 31.1274 16.29C31.329 16.4764 31.5232 16.6706 31.7096 16.8721C32.1507 17.3491 32.1537 18.0684 31.7798 18.5998L31.429 19.0982C31.0877 19.5831 31.0762 20.2186 31.3165 20.7606C31.3685 20.878 31.4178 20.9969 31.4643 21.1171C31.678 21.6701 32.1355 22.1112 32.7196 22.2128L33.3196 22.3171C33.96 22.4284 34.4666 22.9396 34.4916 23.5891C34.4968 23.7254 34.4995 23.8624 34.4995 24C34.4995 24.1376 34.4968 24.2746 34.4916 24.4109C34.4666 25.0605 33.96 25.5716 33.3196 25.6829L32.7196 25.7873C32.1355 25.8888 31.678 26.3299 31.4643 26.8829C31.4178 27.0032 31.3685 27.122 31.3165 27.2394C31.0762 27.7814 31.0877 28.4169 31.429 28.9018L31.7798 29.4002C32.1537 29.9316 32.1507 30.6509 31.7096 31.1279C31.5231 31.3294 31.3289 31.5236 31.1274 31.71C30.6504 32.1512 29.9311 32.1542 29.3997 31.7802L28.9014 31.4295C28.4165 31.0883 27.781 31.0767 27.2389 31.317C27.1216 31.3691 27.0028 31.4183 26.8825 31.4648C26.3296 31.6785 25.8884 32.136 25.7869 32.7201L25.6826 33.3202C25.5712 33.9606 25.0601 34.4671 24.4106 34.4921C24.2743 34.4974 24.1373 34.5 23.9997 34.5C23.8621 34.5 23.7251 34.4974 23.5888 34.4921C22.9393 34.4671 22.4281 33.9606 22.3168 33.3201L22.2125 32.7201C22.1109 32.136 21.6698 31.6785 21.1168 31.4648C20.9966 31.4183 20.8778 31.3691 20.7605 31.317C20.2184 31.0767 19.5829 31.0883 19.098 31.4295L18.5997 31.7802C18.0684 32.1542 17.349 32.1512 16.872 31.71C16.6705 31.5236 16.4763 31.3294 16.2899 31.1278C15.8487 30.6508 15.8457 29.9315 16.2197 29.4002L16.5704 28.9018C16.9116 28.4169 16.9232 27.7814 16.6829 27.2394C16.6308 27.122 16.5816 27.0032 16.5351 26.8829C16.3214 26.3299 15.8639 25.8888 15.2798 25.7873L14.6798 25.683C14.0394 25.5716 13.5329 25.0605 13.5079 24.4109C13.5026 24.2746 13.5 24.1376 13.5 24C13.5 23.8624 13.5026 23.7254 13.5079 23.5891C13.5329 22.9396 14.0394 22.4284 14.6798 22.3171L15.2798 22.2128C15.8638 22.1112 16.3214 21.6701 16.5351 21.1171C16.5815 20.9969 16.6308 20.878 16.6829 20.7606C16.9232 20.2186 16.9116 19.5831 16.5704 19.0982L16.2196 18.5998C15.8457 18.0685 15.8487 17.3492 16.2898 16.8722C16.4762 16.6707 16.6705 16.4764 16.872 16.29ZM27.9996 24C27.9996 26.2091 26.2088 28 23.9997 28C21.7906 28 19.9998 26.2091 19.9998 24C19.9998 21.7909 21.7906 20 23.9997 20C26.2088 20 27.9996 21.7909 27.9996 24Z" fill="#4695FE"/>
</svg>
